<mxfile host="app.diagrams.net" agent="Mozilla/5.0 (X11; Linux x86_64; rv:139.0) Gecko/20100101 Firefox/139.0" version="27.1.3">
  <diagram name="Seite-1" id="7TSiSN_fhyOth1vd420e">
    <mxGraphModel dx="653" dy="610" grid="1" gridSize="10" guides="1" tooltips="1" connect="1" arrows="1" fold="1" page="1" pageScale="1" pageWidth="827" pageHeight="1169" math="0" shadow="0">
      <root>
        <mxCell id="0" />
        <mxCell id="1" parent="0" />
        <mxCell id="KRLuD0gcyzm4EjmMXuH0-1" value="Kunde" style="whiteSpace=wrap;html=1;align=center;" parent="1" vertex="1">
          <mxGeometry x="270" y="290" width="100" height="40" as="geometry" />
        </mxCell>
        <mxCell id="KRLuD0gcyzm4EjmMXuH0-2" value="Auto" style="whiteSpace=wrap;html=1;align=center;" parent="1" vertex="1">
          <mxGeometry x="346.25" y="490" width="100" height="40" as="geometry" />
        </mxCell>
        <mxCell id="KRLuD0gcyzm4EjmMXuH0-3" value="kauft" style="shape=rhombus;perimeter=rhombusPerimeter;whiteSpace=wrap;html=1;align=center;" parent="1" vertex="1">
          <mxGeometry x="230" y="370" width="120" height="60" as="geometry" />
        </mxCell>
        <mxCell id="KRLuD0gcyzm4EjmMXuH0-11" value="&lt;b&gt;&lt;u&gt;Id&lt;/u&gt;&lt;/b&gt;" style="ellipse;whiteSpace=wrap;html=1;align=center;" parent="1" vertex="1">
          <mxGeometry x="201" y="490" width="100" height="40" as="geometry" />
        </mxCell>
        <mxCell id="KRLuD0gcyzm4EjmMXuH0-15" value="Marke" style="ellipse;whiteSpace=wrap;html=1;align=center;" parent="1" vertex="1">
          <mxGeometry x="491" y="490" width="100" height="40" as="geometry" />
        </mxCell>
        <mxCell id="KRLuD0gcyzm4EjmMXuH0-16" value="Farbe" style="ellipse;whiteSpace=wrap;html=1;align=center;" parent="1" vertex="1">
          <mxGeometry x="431" y="580" width="100" height="40" as="geometry" />
        </mxCell>
        <mxCell id="KRLuD0gcyzm4EjmMXuH0-17" value="Preis" style="ellipse;whiteSpace=wrap;html=1;align=center;" parent="1" vertex="1">
          <mxGeometry x="271" y="580" width="100" height="40" as="geometry" />
        </mxCell>
        <mxCell id="KRLuD0gcyzm4EjmMXuH0-18" value="" style="endArrow=none;html=1;rounded=0;entryX=0.5;entryY=0;entryDx=0;entryDy=0;exitX=0.25;exitY=1;exitDx=0;exitDy=0;" parent="1" source="KRLuD0gcyzm4EjmMXuH0-2" target="KRLuD0gcyzm4EjmMXuH0-17" edge="1">
          <mxGeometry relative="1" as="geometry">
            <mxPoint x="380.25" y="-10" as="sourcePoint" />
            <mxPoint x="540.25" y="-10" as="targetPoint" />
          </mxGeometry>
        </mxCell>
        <mxCell id="KRLuD0gcyzm4EjmMXuH0-24" value="" style="endArrow=none;html=1;rounded=0;exitX=1;exitY=0.5;exitDx=0;exitDy=0;entryX=0;entryY=0.5;entryDx=0;entryDy=0;" parent="1" source="KRLuD0gcyzm4EjmMXuH0-11" target="KRLuD0gcyzm4EjmMXuH0-2" edge="1">
          <mxGeometry relative="1" as="geometry">
            <mxPoint x="380.25" y="-10" as="sourcePoint" />
            <mxPoint x="540.25" y="-10" as="targetPoint" />
          </mxGeometry>
        </mxCell>
        <mxCell id="KRLuD0gcyzm4EjmMXuH0-27" value="" style="endArrow=none;html=1;rounded=0;entryX=0.5;entryY=0;entryDx=0;entryDy=0;exitX=0.75;exitY=1;exitDx=0;exitDy=0;" parent="1" source="KRLuD0gcyzm4EjmMXuH0-2" target="KRLuD0gcyzm4EjmMXuH0-16" edge="1">
          <mxGeometry relative="1" as="geometry">
            <mxPoint x="380.25" y="-10" as="sourcePoint" />
            <mxPoint x="540.25" y="-10" as="targetPoint" />
          </mxGeometry>
        </mxCell>
        <mxCell id="KRLuD0gcyzm4EjmMXuH0-28" value="" style="endArrow=none;html=1;rounded=0;exitX=0;exitY=0.5;exitDx=0;exitDy=0;entryX=1;entryY=0.5;entryDx=0;entryDy=0;" parent="1" source="KRLuD0gcyzm4EjmMXuH0-15" target="KRLuD0gcyzm4EjmMXuH0-2" edge="1">
          <mxGeometry relative="1" as="geometry">
            <mxPoint x="380.25" y="-10" as="sourcePoint" />
            <mxPoint x="540.25" y="-10" as="targetPoint" />
          </mxGeometry>
        </mxCell>
        <mxCell id="i2Hs0AR93JAs5svDDMF_-4" value="Person" style="whiteSpace=wrap;html=1;align=center;" vertex="1" parent="1">
          <mxGeometry x="346" y="160" width="100" height="40" as="geometry" />
        </mxCell>
        <mxCell id="i2Hs0AR93JAs5svDDMF_-5" value="&lt;b&gt;&lt;u&gt;Id&lt;/u&gt;&lt;/b&gt;" style="ellipse;whiteSpace=wrap;html=1;align=center;" vertex="1" parent="1">
          <mxGeometry x="190" y="160" width="100" height="40" as="geometry" />
        </mxCell>
        <mxCell id="i2Hs0AR93JAs5svDDMF_-6" value="E-Mail" style="ellipse;whiteSpace=wrap;html=1;align=center;" vertex="1" parent="1">
          <mxGeometry x="500" y="160" width="100" height="40" as="geometry" />
        </mxCell>
        <mxCell id="i2Hs0AR93JAs5svDDMF_-7" value="Vorname" style="ellipse;whiteSpace=wrap;html=1;align=center;" vertex="1" parent="1">
          <mxGeometry x="414" y="90" width="100" height="40" as="geometry" />
        </mxCell>
        <mxCell id="i2Hs0AR93JAs5svDDMF_-8" value="Nachname" style="ellipse;whiteSpace=wrap;html=1;align=center;" vertex="1" parent="1">
          <mxGeometry x="278" y="90" width="100" height="40" as="geometry" />
        </mxCell>
        <mxCell id="i2Hs0AR93JAs5svDDMF_-9" value="" style="endArrow=none;html=1;rounded=0;entryX=0.5;entryY=1;entryDx=0;entryDy=0;exitX=0.25;exitY=0;exitDx=0;exitDy=0;" edge="1" parent="1" source="i2Hs0AR93JAs5svDDMF_-4" target="i2Hs0AR93JAs5svDDMF_-8">
          <mxGeometry relative="1" as="geometry">
            <mxPoint x="206" y="210" as="sourcePoint" />
            <mxPoint x="366" y="210" as="targetPoint" />
          </mxGeometry>
        </mxCell>
        <mxCell id="i2Hs0AR93JAs5svDDMF_-11" value="" style="endArrow=none;html=1;rounded=0;entryX=0.5;entryY=1;entryDx=0;entryDy=0;exitX=0.75;exitY=0;exitDx=0;exitDy=0;" edge="1" parent="1" source="i2Hs0AR93JAs5svDDMF_-4" target="i2Hs0AR93JAs5svDDMF_-7">
          <mxGeometry relative="1" as="geometry">
            <mxPoint x="206" y="210" as="sourcePoint" />
            <mxPoint x="366" y="210" as="targetPoint" />
          </mxGeometry>
        </mxCell>
        <mxCell id="i2Hs0AR93JAs5svDDMF_-12" value="" style="endArrow=none;html=1;rounded=0;exitX=0;exitY=0.5;exitDx=0;exitDy=0;entryX=1;entryY=0.5;entryDx=0;entryDy=0;" edge="1" parent="1" source="i2Hs0AR93JAs5svDDMF_-6" target="i2Hs0AR93JAs5svDDMF_-4">
          <mxGeometry relative="1" as="geometry">
            <mxPoint x="206" y="210" as="sourcePoint" />
            <mxPoint x="366" y="210" as="targetPoint" />
          </mxGeometry>
        </mxCell>
        <mxCell id="i2Hs0AR93JAs5svDDMF_-16" value="" style="endArrow=none;html=1;rounded=0;entryX=0;entryY=0.5;entryDx=0;entryDy=0;exitX=1;exitY=0.5;exitDx=0;exitDy=0;" edge="1" parent="1" source="i2Hs0AR93JAs5svDDMF_-5" target="i2Hs0AR93JAs5svDDMF_-4">
          <mxGeometry width="50" height="50" relative="1" as="geometry">
            <mxPoint x="310" y="100" as="sourcePoint" />
            <mxPoint x="360" y="50" as="targetPoint" />
          </mxGeometry>
        </mxCell>
        <mxCell id="i2Hs0AR93JAs5svDDMF_-17" value="Mitarbeiter" style="whiteSpace=wrap;html=1;align=center;" vertex="1" parent="1">
          <mxGeometry x="430" y="290" width="100" height="40" as="geometry" />
        </mxCell>
        <mxCell id="i2Hs0AR93JAs5svDDMF_-18" value="" style="triangle;whiteSpace=wrap;html=1;rotation=-90;" vertex="1" parent="1">
          <mxGeometry x="378" y="218" width="36" height="40" as="geometry" />
        </mxCell>
        <mxCell id="i2Hs0AR93JAs5svDDMF_-19" value="" style="endArrow=none;html=1;rounded=0;entryX=0.5;entryY=1;entryDx=0;entryDy=0;exitX=1;exitY=0.5;exitDx=0;exitDy=0;" edge="1" parent="1" source="i2Hs0AR93JAs5svDDMF_-18" target="i2Hs0AR93JAs5svDDMF_-4">
          <mxGeometry width="50" height="50" relative="1" as="geometry">
            <mxPoint x="380" y="250" as="sourcePoint" />
            <mxPoint x="430" y="200" as="targetPoint" />
          </mxGeometry>
        </mxCell>
        <mxCell id="i2Hs0AR93JAs5svDDMF_-20" value="" style="endArrow=none;html=1;rounded=0;entryX=-0.005;entryY=0.815;entryDx=0;entryDy=0;entryPerimeter=0;exitX=0.5;exitY=0;exitDx=0;exitDy=0;" edge="1" parent="1" source="i2Hs0AR93JAs5svDDMF_-17" target="i2Hs0AR93JAs5svDDMF_-18">
          <mxGeometry width="50" height="50" relative="1" as="geometry">
            <mxPoint x="490" y="280" as="sourcePoint" />
            <mxPoint x="430" y="200" as="targetPoint" />
          </mxGeometry>
        </mxCell>
        <mxCell id="i2Hs0AR93JAs5svDDMF_-21" value="" style="endArrow=none;html=1;rounded=0;exitX=0;exitY=0.25;exitDx=0;exitDy=0;entryX=0.5;entryY=0;entryDx=0;entryDy=0;" edge="1" parent="1" source="i2Hs0AR93JAs5svDDMF_-18" target="KRLuD0gcyzm4EjmMXuH0-1">
          <mxGeometry width="50" height="50" relative="1" as="geometry">
            <mxPoint x="390" y="190" as="sourcePoint" />
            <mxPoint x="440" y="140" as="targetPoint" />
          </mxGeometry>
        </mxCell>
        <mxCell id="i2Hs0AR93JAs5svDDMF_-22" value="Geburtsdatum" style="ellipse;whiteSpace=wrap;html=1;align=center;" vertex="1" parent="1">
          <mxGeometry x="130" y="290" width="100" height="40" as="geometry" />
        </mxCell>
        <mxCell id="i2Hs0AR93JAs5svDDMF_-23" value="" style="endArrow=none;html=1;rounded=0;exitX=1;exitY=0.5;exitDx=0;exitDy=0;entryX=0;entryY=0.5;entryDx=0;entryDy=0;" edge="1" parent="1" source="i2Hs0AR93JAs5svDDMF_-22" target="KRLuD0gcyzm4EjmMXuH0-1">
          <mxGeometry width="50" height="50" relative="1" as="geometry">
            <mxPoint x="470" y="130" as="sourcePoint" />
            <mxPoint x="520" y="80" as="targetPoint" />
          </mxGeometry>
        </mxCell>
        <mxCell id="i2Hs0AR93JAs5svDDMF_-25" value="verantwortlich" style="shape=rhombus;perimeter=rhombusPerimeter;whiteSpace=wrap;html=1;align=center;" vertex="1" parent="1">
          <mxGeometry x="446" y="370" width="120" height="60" as="geometry" />
        </mxCell>
        <mxCell id="i2Hs0AR93JAs5svDDMF_-26" value="" style="endArrow=none;html=1;rounded=0;exitX=0.5;exitY=0;exitDx=0;exitDy=0;entryX=0.5;entryY=1;entryDx=0;entryDy=0;" edge="1" parent="1" source="KRLuD0gcyzm4EjmMXuH0-3" target="KRLuD0gcyzm4EjmMXuH0-1">
          <mxGeometry width="50" height="50" relative="1" as="geometry">
            <mxPoint x="470" y="500" as="sourcePoint" />
            <mxPoint x="520" y="450" as="targetPoint" />
          </mxGeometry>
        </mxCell>
        <mxCell id="i2Hs0AR93JAs5svDDMF_-27" value="" style="endArrow=none;html=1;rounded=0;exitX=0.5;exitY=1;exitDx=0;exitDy=0;entryX=0.5;entryY=0;entryDx=0;entryDy=0;" edge="1" parent="1" source="i2Hs0AR93JAs5svDDMF_-17" target="i2Hs0AR93JAs5svDDMF_-25">
          <mxGeometry width="50" height="50" relative="1" as="geometry">
            <mxPoint x="470" y="500" as="sourcePoint" />
            <mxPoint x="520" y="450" as="targetPoint" />
          </mxGeometry>
        </mxCell>
        <mxCell id="i2Hs0AR93JAs5svDDMF_-28" value="" style="endArrow=none;html=1;rounded=0;exitX=0.5;exitY=1;exitDx=0;exitDy=0;entryX=0.25;entryY=0;entryDx=0;entryDy=0;" edge="1" parent="1" source="KRLuD0gcyzm4EjmMXuH0-3" target="KRLuD0gcyzm4EjmMXuH0-2">
          <mxGeometry width="50" height="50" relative="1" as="geometry">
            <mxPoint x="470" y="610" as="sourcePoint" />
            <mxPoint x="520" y="560" as="targetPoint" />
          </mxGeometry>
        </mxCell>
        <mxCell id="i2Hs0AR93JAs5svDDMF_-29" value="" style="endArrow=none;html=1;rounded=0;entryX=0.5;entryY=1;entryDx=0;entryDy=0;exitX=0.75;exitY=0;exitDx=0;exitDy=0;" edge="1" parent="1" source="KRLuD0gcyzm4EjmMXuH0-2" target="i2Hs0AR93JAs5svDDMF_-25">
          <mxGeometry width="50" height="50" relative="1" as="geometry">
            <mxPoint x="470" y="450" as="sourcePoint" />
            <mxPoint x="520" y="400" as="targetPoint" />
          </mxGeometry>
        </mxCell>
        <mxCell id="i2Hs0AR93JAs5svDDMF_-30" value="&lt;div&gt;&lt;font style=&quot;font-size: 9px;&quot;&gt;1&lt;/font&gt;&lt;/div&gt;" style="text;html=1;align=center;verticalAlign=middle;whiteSpace=wrap;rounded=0;" vertex="1" parent="1">
          <mxGeometry x="290" y="330" width="14" height="20" as="geometry" />
        </mxCell>
        <mxCell id="i2Hs0AR93JAs5svDDMF_-31" value="n" style="text;html=1;align=center;verticalAlign=middle;whiteSpace=wrap;rounded=0;" vertex="1" parent="1">
          <mxGeometry x="336" y="470" width="14" height="20" as="geometry" />
        </mxCell>
        <mxCell id="i2Hs0AR93JAs5svDDMF_-32" value="&lt;div&gt;&lt;font style=&quot;font-size: 9px;&quot;&gt;1&lt;/font&gt;&lt;/div&gt;" style="text;html=1;align=center;verticalAlign=middle;whiteSpace=wrap;rounded=0;" vertex="1" parent="1">
          <mxGeometry x="491" y="330" width="14" height="20" as="geometry" />
        </mxCell>
        <mxCell id="i2Hs0AR93JAs5svDDMF_-33" value="n" style="text;html=1;align=center;verticalAlign=middle;whiteSpace=wrap;rounded=0;" vertex="1" parent="1">
          <mxGeometry x="446" y="470" width="14" height="20" as="geometry" />
        </mxCell>
      </root>
    </mxGraphModel>
  </diagram>
</mxfile>
